<svg id="svg" version="1.1" xmlns="http://www.w3.org/2000/svg" xmlns:xlink="http://www.w3.org/1999/xlink" width="400" height="401.2036108324975" viewBox="0, 0, 400,401.2036108324975"><g id="svgg"><path id="path0" d="M181.791 55.753 L 162.880 81.612 160.527 80.835 C 158.380 80.126,103.203 62.411,102.156 62.095 L 101.705 61.959 101.676 76.667 C 101.660 84.756,101.593 99.217,101.526 108.803 L 101.404 126.231 71.013 136.216 C 54.298 141.708,40.641 146.290,40.664 146.397 C 40.687 146.505,48.904 157.955,58.924 171.842 C 68.944 185.729,77.345 197.379,77.593 197.732 L 78.045 198.372 59.270 224.382 C 48.944 238.687,40.524 250.419,40.559 250.452 C 40.593 250.485,54.298 255.000,71.013 260.486 C 87.728 265.971,101.418 270.471,101.434 270.485 C 101.450 270.500,101.529 284.955,101.608 302.608 C 101.687 320.261,101.764 334.713,101.779 334.725 C 101.793 334.736,115.521 330.335,132.284 324.945 C 149.048 319.555,162.814 315.151,162.876 315.157 C 162.938 315.164,166.293 319.700,170.331 325.237 C 187.714 349.076,200.268 366.223,200.575 366.545 C 200.884 366.870,201.183 366.511,205.335 360.828 C 227.797 330.085,238.768 315.146,238.882 315.152 C 238.956 315.155,252.693 319.559,269.408 324.938 L 299.799 334.719 299.922 328.894 C 299.989 325.690,300.057 311.264,300.072 296.836 L 300.100 270.603 300.552 270.408 C 300.800 270.300,310.933 266.956,323.069 262.976 C 335.206 258.996,348.295 254.698,352.156 253.424 C 356.018 252.150,359.614 250.977,360.147 250.817 C 360.732 250.642,361.080 250.432,361.025 250.288 C 360.974 250.157,352.571 238.468,342.352 224.312 C 332.133 210.156,323.771 198.474,323.771 198.352 C 323.771 198.230,324.300 197.400,324.945 196.507 C 346.826 166.260,361.080 146.359,360.949 146.240 C 360.857 146.156,355.908 144.490,349.950 142.537 C 328.730 135.584,312.148 130.137,306.193 128.164 L 300.149 126.161 300.068 94.184 C 300.023 76.597,299.939 62.159,299.880 62.100 C 299.821 62.041,286.158 66.369,269.518 71.716 C 252.878 77.064,239.147 81.463,239.006 81.492 C 238.865 81.521,234.159 75.271,228.548 67.603 C 222.937 59.935,214.434 48.312,209.652 41.775 C 204.870 35.238,200.900 29.891,200.830 29.892 C 200.760 29.893,192.192 41.530,181.791 55.753 M209.729 87.057 C 271.956 92.674,317.600 147.264,312.045 209.428 C 306.235 274.443,245.930 321.078,181.545 310.348 C 110.638 298.532,68.908 224.727,95.221 157.673 C 110.644 118.369,148.734 90.104,190.371 87.066 C 191.971 86.949,193.731 86.820,194.283 86.779 C 196.160 86.638,207.313 86.839,209.729 87.057 M197.955 88.615 C 199.091 88.651,200.897 88.651,201.967 88.615 C 203.036 88.579,202.106 88.550,199.900 88.550 C 197.693 88.550,196.818 88.579,197.955 88.615 M193.133 88.811 C 193.494 88.856,194.035 88.855,194.337 88.809 C 194.638 88.764,194.343 88.727,193.681 88.728 C 193.019 88.729,192.772 88.767,193.133 88.811 M205.570 88.811 C 205.931 88.856,206.472 88.855,206.774 88.809 C 207.075 88.764,206.780 88.727,206.118 88.728 C 205.456 88.729,205.210 88.767,205.570 88.811 M190.321 89.008 C 190.569 89.056,190.975 89.056,191.224 89.008 C 191.472 88.960,191.269 88.921,190.772 88.921 C 190.276 88.921,190.073 88.960,190.321 89.008 M208.576 89.008 C 208.824 89.056,209.230 89.056,209.478 89.008 C 209.727 88.960,209.524 88.921,209.027 88.921 C 208.531 88.921,208.327 88.960,208.576 89.008 M188.117 89.209 C 188.366 89.257,188.727 89.255,188.919 89.205 C 189.111 89.155,188.907 89.116,188.465 89.118 C 188.024 89.120,187.867 89.161,188.117 89.209 M210.985 89.209 C 211.235 89.257,211.596 89.255,211.788 89.205 C 211.979 89.155,211.775 89.116,211.334 89.118 C 210.893 89.120,210.736 89.161,210.985 89.209 M186.209 89.406 C 186.402 89.457,186.718 89.457,186.911 89.406 C 187.104 89.356,186.946 89.314,186.560 89.314 C 186.174 89.314,186.016 89.356,186.209 89.406 M212.889 89.406 C 213.082 89.457,213.398 89.457,213.591 89.406 C 213.784 89.356,213.626 89.314,213.240 89.314 C 212.854 89.314,212.696 89.356,212.889 89.406 M167.603 93.280 C 167.350 93.389,167.313 93.452,167.503 93.452 C 167.668 93.452,167.984 93.375,168.205 93.280 C 168.458 93.171,168.495 93.107,168.305 93.107 C 168.139 93.107,167.823 93.185,167.603 93.280 M231.595 93.280 C 231.815 93.375,232.131 93.452,232.297 93.452 C 232.487 93.452,232.449 93.389,232.197 93.280 C 231.976 93.185,231.660 93.107,231.494 93.107 C 231.305 93.107,231.342 93.171,231.595 93.280 M153.661 98.596 C 153.385 98.753,153.250 98.882,153.360 98.882 C 153.470 98.882,153.786 98.753,154.062 98.596 C 154.338 98.438,154.473 98.309,154.363 98.309 C 154.253 98.309,153.937 98.438,153.661 98.596 M245.737 98.596 C 246.013 98.753,246.329 98.882,246.439 98.882 C 246.550 98.882,246.414 98.753,246.138 98.596 C 245.863 98.438,245.547 98.309,245.436 98.309 C 245.326 98.309,245.461 98.438,245.737 98.596 M146.991 101.919 C 146.577 102.138,146.239 102.361,146.239 102.416 C 146.239 102.471,146.600 102.331,147.041 102.106 C 147.482 101.881,147.844 101.654,147.844 101.601 C 147.844 101.470,147.842 101.470,146.991 101.919 M251.956 101.597 C 251.956 101.652,252.317 101.881,252.758 102.106 C 253.200 102.331,253.561 102.471,253.561 102.415 C 253.561 102.360,253.200 102.131,252.758 101.906 C 252.317 101.681,251.956 101.541,251.956 101.597 M257.874 105.019 C 258.094 105.198,258.455 105.434,258.676 105.542 L 259.077 105.739 258.676 105.413 C 258.455 105.233,258.094 104.997,257.874 104.889 L 257.472 104.692 257.874 105.019 M138.562 107.028 C 138.150 107.308,137.813 107.580,137.813 107.633 C 137.813 107.686,138.175 107.490,138.616 107.198 C 139.317 106.734,139.553 106.520,139.365 106.520 C 139.335 106.520,138.974 106.748,138.562 107.028 M260.381 106.580 C 260.381 106.626,260.900 106.997,261.535 107.404 C 262.169 107.811,262.441 107.934,262.139 107.678 C 261.544 107.172,260.381 106.446,260.381 106.580 M135.707 109.045 L 135.105 109.562 135.757 109.130 C 136.116 108.893,136.409 108.660,136.409 108.612 C 136.409 108.462,136.324 108.514,135.707 109.045 M263.390 108.599 C 263.390 108.654,263.661 108.892,263.992 109.127 C 264.323 109.363,264.594 109.511,264.594 109.456 C 264.594 109.400,264.323 109.162,263.992 108.927 C 263.661 108.691,263.390 108.543,263.390 108.599 M264.794 109.591 C 264.794 109.641,265.126 109.934,265.531 110.243 C 265.936 110.552,266.204 110.703,266.127 110.577 C 265.968 110.321,264.794 109.452,264.794 109.591 M133.393 110.747 L 132.698 111.363 133.450 110.823 C 134.115 110.346,134.331 110.130,134.145 110.130 C 134.113 110.130,133.775 110.408,133.393 110.747 M127.871 115.196 L 127.282 115.848 127.934 115.258 C 128.292 114.934,128.586 114.641,128.586 114.606 C 128.586 114.451,128.420 114.588,127.871 115.196 M271.214 114.606 C 271.214 114.641,271.507 114.934,271.866 115.258 L 272.518 115.848 271.928 115.196 C 271.379 114.588,271.214 114.451,271.214 114.606 M126.269 116.600 L 125.476 117.452 126.329 116.659 C 126.798 116.223,127.182 115.840,127.182 115.807 C 127.182 115.655,127.007 115.807,126.269 116.600 M273.320 116.550 C 273.751 116.991,274.149 117.352,274.204 117.352 C 274.259 117.352,273.952 116.991,273.521 116.550 C 273.090 116.108,272.692 115.747,272.637 115.747 C 272.582 115.747,272.889 116.108,273.320 116.550 M121.563 121.113 L 117.854 124.875 121.615 121.166 C 123.684 119.126,125.376 117.433,125.376 117.404 C 125.376 117.261,125.009 117.619,121.563 121.113 M278.429 121.464 C 283.716 126.905,283.783 126.971,282.097 125.075 C 281.312 124.193,279.244 122.071,277.502 120.361 C 274.683 117.593,274.784 117.714,278.429 121.464 M117.042 125.827 L 116.249 126.680 117.101 125.887 C 117.570 125.451,117.954 125.067,117.954 125.035 C 117.954 124.883,117.779 125.035,117.042 125.827 M115.634 127.432 L 115.045 128.084 115.697 127.495 C 116.056 127.171,116.349 126.878,116.349 126.843 C 116.349 126.688,116.184 126.825,115.634 127.432 M283.450 126.843 C 283.450 126.878,283.744 127.171,284.102 127.495 L 284.754 128.084 284.165 127.432 C 283.616 126.825,283.450 126.688,283.450 126.843 M112.538 131.194 C 112.188 131.635,111.947 131.996,112.002 131.996 C 112.058 131.996,112.389 131.635,112.738 131.194 C 113.088 130.752,113.329 130.391,113.273 130.391 C 113.218 130.391,112.887 130.752,112.538 131.194 M109.328 135.507 C 108.986 136.003,108.752 136.409,108.807 136.409 C 108.862 136.409,109.187 136.003,109.529 135.507 C 109.870 135.010,110.105 134.604,110.049 134.604 C 109.994 134.604,109.670 135.010,109.328 135.507 M290.271 135.507 C 290.612 136.003,290.937 136.409,290.992 136.409 C 291.047 136.409,290.813 136.003,290.471 135.507 C 290.130 135.010,289.805 134.604,289.750 134.604 C 289.695 134.604,289.929 135.010,290.271 135.507 M106.395 139.870 C 105.705 141.041,105.660 141.141,106.012 140.722 C 106.419 140.237,106.770 139.619,106.639 139.619 C 106.586 139.619,106.477 139.732,106.395 139.870 M294.257 141.525 C 294.365 141.745,294.601 142.106,294.781 142.327 L 295.107 142.728 294.910 142.327 C 294.802 142.106,294.566 141.745,294.387 141.525 L 294.060 141.123 294.257 141.525 M103.410 144.835 C 103.239 145.165,103.144 145.436,103.199 145.436 C 103.254 145.436,103.440 145.165,103.611 144.835 C 103.782 144.504,103.877 144.233,103.822 144.233 C 103.767 144.233,103.581 144.504,103.410 144.835 M102.307 146.841 C 102.082 147.282,101.943 147.643,101.998 147.643 C 102.053 147.643,102.282 147.282,102.508 146.841 C 102.733 146.399,102.872 146.038,102.817 146.038 C 102.761 146.038,102.532 146.399,102.307 146.841 M297.292 146.841 C 297.517 147.282,297.746 147.643,297.802 147.643 C 297.857 147.643,297.718 147.282,297.492 146.841 C 297.267 146.399,297.038 146.038,296.983 146.038 C 296.928 146.038,297.067 146.399,297.292 146.841 M99.330 152.767 C 98.994 153.505,99.058 153.662,99.422 152.991 C 99.592 152.678,99.693 152.384,99.647 152.338 C 99.601 152.293,99.459 152.485,99.330 152.767 M300.115 152.357 C 300.115 152.467,300.244 152.783,300.401 153.059 C 300.559 153.335,300.688 153.470,300.688 153.360 C 300.688 153.250,300.559 152.934,300.401 152.658 C 300.244 152.382,300.115 152.247,300.115 152.357 M304.027 161.886 C 304.101 162.161,304.245 162.523,304.347 162.688 C 304.476 162.897,304.492 162.836,304.399 162.487 C 304.325 162.212,304.181 161.851,304.078 161.685 C 303.949 161.476,303.933 161.537,304.027 161.886 M94.100 166.317 C 93.965 166.770,93.891 167.177,93.936 167.222 C 93.981 167.268,94.129 166.934,94.265 166.481 C 94.400 166.028,94.474 165.621,94.429 165.576 C 94.384 165.531,94.236 165.864,94.100 166.317 M134.100 199.298 C 134.100 216.068,134.123 222.899,134.152 214.478 C 134.181 206.056,134.181 192.335,134.152 183.986 C 134.123 175.637,134.100 182.528,134.100 199.298 M234.598 181.745 C 234.598 188.862,234.623 191.773,234.654 188.215 C 234.685 184.656,234.685 178.834,234.654 175.276 C 234.623 171.718,234.598 174.629,234.598 181.745 M89.916 186.359 C 89.916 186.745,89.957 186.903,90.008 186.710 C 90.058 186.517,90.058 186.201,90.008 186.008 C 89.957 185.815,89.916 185.973,89.916 186.359 M309.776 186.359 C 309.776 186.745,309.817 186.903,309.867 186.710 C 309.918 186.517,309.918 186.201,309.867 186.008 C 309.817 185.815,309.776 185.973,309.776 186.359 M309.980 188.265 C 309.983 188.706,310.024 188.863,310.072 188.614 C 310.120 188.364,310.118 188.003,310.068 187.811 C 310.017 187.619,309.978 187.823,309.980 188.265 M89.716 188.365 C 89.716 188.751,89.757 188.909,89.807 188.716 C 89.858 188.523,89.858 188.207,89.807 188.014 C 89.757 187.821,89.716 187.979,89.716 188.365 M89.526 190.471 C 89.527 191.023,89.566 191.225,89.612 190.920 C 89.658 190.615,89.657 190.164,89.610 189.917 C 89.562 189.670,89.524 189.920,89.526 190.471 M310.181 190.672 C 310.183 191.113,310.224 191.270,310.272 191.021 C 310.320 190.771,310.318 190.410,310.268 190.218 C 310.218 190.027,310.179 190.231,310.181 190.672 M89.338 193.581 C 89.338 194.519,89.372 194.902,89.415 194.433 C 89.457 193.964,89.457 193.197,89.415 192.728 C 89.372 192.259,89.338 192.643,89.338 193.581 M310.400 193.681 C 310.400 194.564,310.436 194.900,310.478 194.428 C 310.521 193.956,310.520 193.234,310.477 192.823 C 310.434 192.412,310.399 192.798,310.400 193.681 M310.607 199.198 C 310.607 200.466,310.640 200.985,310.680 200.351 C 310.720 199.717,310.720 198.679,310.680 198.044 C 310.640 197.410,310.607 197.929,310.607 199.198 M89.142 199.298 C 89.143 200.512,89.176 200.982,89.216 200.344 C 89.256 199.705,89.255 198.712,89.215 198.137 C 89.174 197.562,89.142 198.084,89.142 199.298 M89.337 204.915 C 89.337 205.797,89.373 206.134,89.415 205.662 C 89.457 205.190,89.457 204.468,89.414 204.057 C 89.371 203.646,89.336 204.032,89.337 204.915 M310.398 204.814 C 310.398 205.642,310.434 205.980,310.477 205.567 C 310.520 205.153,310.520 204.476,310.477 204.062 C 310.434 203.648,310.398 203.987,310.398 204.814 M310.185 207.823 C 310.185 208.320,310.224 208.523,310.272 208.275 C 310.320 208.027,310.320 207.620,310.272 207.372 C 310.224 207.124,310.185 207.327,310.185 207.823 M89.526 208.124 C 89.527 208.676,89.566 208.878,89.612 208.573 C 89.658 208.268,89.657 207.817,89.610 207.570 C 89.562 207.323,89.524 207.573,89.526 208.124 M89.716 210.231 C 89.716 210.617,89.757 210.775,89.807 210.582 C 89.858 210.389,89.858 210.073,89.807 209.880 C 89.757 209.687,89.716 209.845,89.716 210.231 M309.976 210.231 C 309.976 210.617,310.018 210.775,310.068 210.582 C 310.119 210.389,310.119 210.073,310.068 209.880 C 310.018 209.687,309.976 209.845,309.976 210.231 M309.776 212.237 C 309.776 212.623,309.817 212.781,309.867 212.588 C 309.918 212.395,309.918 212.079,309.867 211.886 C 309.817 211.693,309.776 211.851,309.776 212.237 M90.117 213.842 C 90.117 214.228,90.158 214.386,90.208 214.193 C 90.259 213.999,90.259 213.684,90.208 213.490 C 90.158 213.297,90.117 213.455,90.117 213.842 M309.575 213.842 C 309.575 214.228,309.616 214.386,309.667 214.193 C 309.717 213.999,309.717 213.684,309.667 213.490 C 309.616 213.297,309.575 213.455,309.575 213.842 M189.139 228.136 C 189.223 228.220,193.800 228.265,199.310 228.237 L 209.328 228.184 199.157 228.084 C 193.564 228.029,189.055 228.053,189.139 228.136 M225.476 228.084 L 215.346 228.190 225.527 228.237 C 232.211 228.269,235.707 228.216,235.707 228.084 C 235.707 227.974,235.685 227.905,235.657 227.931 C 235.629 227.957,231.048 228.026,225.476 228.084 M167.854 228.235 C 170.639 228.266,175.198 228.266,177.984 228.235 C 180.770 228.203,178.490 228.177,172.919 228.177 C 167.347 228.177,165.068 228.203,167.854 228.235 M255.531 228.235 C 258.324 228.266,262.838 228.266,265.561 228.235 C 268.284 228.203,265.998 228.177,260.481 228.177 C 254.965 228.177,252.737 228.203,255.531 228.235 M94.708 233.902 C 94.705 234.067,94.826 234.473,94.978 234.804 C 95.332 235.579,95.338 235.219,94.985 234.303 C 94.836 233.917,94.712 233.736,94.708 233.902 M98.510 243.831 C 98.510 243.942,98.639 244.258,98.796 244.534 C 98.954 244.809,99.083 244.945,99.083 244.835 C 99.083 244.724,98.954 244.408,98.796 244.132 C 98.639 243.857,98.510 243.721,98.510 243.831 M300.935 244.241 C 300.599 244.979,300.663 245.136,301.027 244.466 C 301.196 244.153,301.298 243.859,301.252 243.813 C 301.206 243.767,301.064 243.960,300.935 244.241 M99.498 246.008 C 99.498 246.226,102.099 251.354,102.209 251.354 C 102.299 251.354,99.765 246.159,99.576 245.955 C 99.533 245.909,99.498 245.932,99.498 246.008 M298.840 248.655 C 298.100 250.139,297.538 251.354,297.592 251.354 C 297.725 251.354,300.344 246.114,300.255 246.026 C 300.216 245.987,299.580 247.170,298.840 248.655 M103.009 252.959 C 103.180 253.290,103.365 253.561,103.421 253.561 C 103.476 253.561,103.381 253.290,103.210 252.959 C 103.038 252.628,102.853 252.357,102.798 252.357 C 102.743 252.357,102.838 252.628,103.009 252.959 M296.590 252.959 C 296.419 253.290,296.324 253.561,296.379 253.561 C 296.434 253.561,296.619 253.290,296.790 252.959 C 296.962 252.628,297.056 252.357,297.001 252.357 C 296.946 252.357,296.761 252.628,296.590 252.959 M103.811 254.363 C 103.983 254.694,104.168 254.965,104.223 254.965 C 104.278 254.965,104.183 254.694,104.012 254.363 C 103.841 254.032,103.656 253.761,103.601 253.761 C 103.545 253.761,103.640 254.032,103.811 254.363 M295.787 254.363 C 295.616 254.694,295.521 254.965,295.576 254.965 C 295.632 254.965,295.817 254.694,295.988 254.363 C 296.159 254.032,296.254 253.761,296.199 253.761 C 296.144 253.761,295.959 254.032,295.787 254.363 M105.691 257.472 C 105.800 257.693,106.035 258.054,106.215 258.275 L 106.542 258.676 106.345 258.275 C 106.236 258.054,106.001 257.693,105.821 257.472 L 105.494 257.071 105.691 257.472 M293.958 257.422 C 293.268 258.594,293.223 258.694,293.574 258.275 C 293.982 257.789,294.333 257.172,294.201 257.172 C 294.149 257.172,294.039 257.284,293.958 257.422 M107.662 260.597 C 107.861 260.937,108.152 261.320,108.309 261.450 C 108.466 261.579,108.341 261.301,108.032 260.832 C 107.382 259.848,107.126 259.685,107.662 260.597 M291.768 260.832 C 291.459 261.301,291.334 261.579,291.490 261.450 C 291.792 261.201,292.560 259.980,292.415 259.980 C 292.368 259.980,292.077 260.364,291.768 260.832 M109.735 263.551 C 110.214 264.247,110.700 264.875,110.816 264.946 C 111.054 265.093,109.625 263.054,109.164 262.588 C 109.000 262.422,109.257 262.856,109.735 263.551 M290.246 263.039 C 289.996 263.398,289.561 264.002,289.279 264.383 C 288.997 264.764,288.863 265.017,288.980 264.946 C 289.234 264.792,290.943 262.387,290.799 262.387 C 290.744 262.387,290.495 262.681,290.246 263.039 M112.136 266.800 C 112.486 267.242,112.817 267.603,112.872 267.603 C 112.927 267.603,112.687 267.242,112.337 266.800 C 111.987 266.359,111.656 265.998,111.601 265.998 C 111.546 265.998,111.787 266.359,112.136 266.800 M287.462 266.800 C 287.113 267.242,286.872 267.603,286.927 267.603 C 286.982 267.603,287.313 267.242,287.663 266.800 C 288.013 266.359,288.253 265.998,288.198 265.998 C 288.143 265.998,287.812 266.359,287.462 266.800 M114.543 269.809 C 115.005 270.360,115.487 270.876,115.615 270.954 C 115.743 271.033,115.408 270.582,114.870 269.952 C 114.333 269.322,113.851 268.806,113.798 268.806 C 113.746 268.806,114.082 269.257,114.543 269.809 M284.541 270.461 L 283.952 271.113 284.604 270.524 C 285.212 269.975,285.348 269.809,285.193 269.809 C 285.158 269.809,284.865 270.103,284.541 270.461 M115.747 271.276 C 115.747 271.311,116.041 271.604,116.399 271.928 L 117.051 272.518 116.462 271.866 C 115.913 271.258,115.747 271.121,115.747 271.276 M283.337 271.866 L 282.748 272.518 283.400 271.928 C 284.008 271.379,284.144 271.214,283.989 271.214 C 283.955 271.214,283.661 271.507,283.337 271.866 M281.738 273.671 L 280.742 274.724 281.795 273.729 C 282.375 273.181,282.849 272.707,282.849 272.676 C 282.849 272.526,282.663 272.692,281.738 273.671 M118.054 273.821 C 118.598 274.373,119.087 274.824,119.142 274.824 C 119.198 274.824,118.798 274.373,118.255 273.821 C 117.711 273.270,117.222 272.818,117.167 272.818 C 117.111 272.818,117.511 273.270,118.054 273.821 M121.565 277.533 C 122.941 278.912,124.111 280.040,124.166 280.040 C 124.222 280.040,123.141 278.912,121.765 277.533 C 120.389 276.153,119.219 275.025,119.163 275.025 C 119.108 275.025,120.189 276.153,121.565 277.533 M278.031 277.583 L 275.527 280.140 278.084 277.636 C 280.460 275.309,280.733 275.025,280.589 275.025 C 280.560 275.025,279.409 276.176,278.031 277.583 M125.276 281.043 C 125.819 281.595,126.309 282.046,126.364 282.046 C 126.419 282.046,126.020 281.595,125.476 281.043 C 124.933 280.491,124.443 280.040,124.388 280.040 C 124.333 280.040,124.732 280.491,125.276 281.043 M273.420 281.881 C 271.891 283.336,271.860 283.379,273.119 282.296 C 274.441 281.159,275.389 280.230,275.207 280.249 C 275.162 280.254,274.358 280.988,273.420 281.881 M127.182 282.748 C 127.556 283.134,127.907 283.450,127.962 283.450 C 128.018 283.450,127.756 283.134,127.382 282.748 C 127.008 282.362,126.657 282.046,126.601 282.046 C 126.546 282.046,126.807 282.362,127.182 282.748 M132.539 287.082 C 132.811 287.420,134.604 288.739,134.604 288.602 C 134.604 288.553,134.085 288.124,133.450 287.648 C 132.816 287.172,132.406 286.917,132.539 287.082 M265.998 287.889 C 264.388 289.129,263.970 289.558,265.233 288.673 C 266.251 287.960,267.564 286.875,267.402 286.880 C 267.347 286.882,266.715 287.336,265.998 287.889 M135.607 289.341 C 135.607 289.396,135.878 289.634,136.209 289.870 C 136.540 290.105,136.810 290.253,136.810 290.198 C 136.810 290.143,136.540 289.905,136.209 289.669 C 135.878 289.433,135.607 289.286,135.607 289.341 M263.490 289.787 L 262.889 290.304 263.541 289.873 C 263.899 289.635,264.193 289.402,264.193 289.354 C 264.193 289.204,264.108 289.257,263.490 289.787 M140.321 292.581 C 140.542 292.761,140.903 292.997,141.123 293.105 L 141.525 293.302 141.123 292.975 C 140.903 292.796,140.542 292.560,140.321 292.452 L 139.920 292.255 140.321 292.581 M259.027 292.701 C 258.343 293.139,258.122 293.433,258.726 293.101 C 259.186 292.848,259.907 292.290,259.779 292.287 C 259.724 292.285,259.386 292.471,259.027 292.701 M257.422 293.704 C 256.739 294.142,256.517 294.436,257.121 294.104 C 257.582 293.851,258.303 293.293,258.175 293.290 C 258.119 293.288,257.781 293.474,257.422 293.704 M146.038 295.980 C 146.038 296.035,146.399 296.264,146.841 296.489 C 147.282 296.715,147.643 296.854,147.643 296.799 C 147.643 296.743,147.282 296.514,146.841 296.289 C 146.399 296.064,146.038 295.925,146.038 295.980 M253.109 296.203 C 252.359 296.610,252.405 296.779,253.159 296.389 C 253.490 296.218,253.761 296.035,253.761 295.983 C 253.761 295.854,253.740 295.861,253.109 296.203 M149.047 297.592 C 149.047 297.726,151.880 299.140,151.969 299.050 C 152.009 299.010,151.368 298.644,150.545 298.237 C 149.721 297.829,149.047 297.539,149.047 297.592 M249.147 298.295 C 248.320 298.725,247.713 299.082,247.798 299.087 C 248.012 299.101,250.752 297.712,250.752 297.590 C 250.752 297.455,250.818 297.426,249.147 298.295 M153.862 300.000 C 154.137 300.158,154.453 300.287,154.564 300.287 C 154.674 300.287,154.539 300.158,154.263 300.000 C 153.987 299.842,153.671 299.713,153.561 299.713 C 153.450 299.713,153.586 299.842,153.862 300.000 M245.537 300.000 C 245.261 300.158,245.125 300.287,245.236 300.287 C 245.346 300.287,245.662 300.158,245.938 300.000 C 246.214 299.842,246.349 299.713,246.239 299.713 C 246.128 299.713,245.812 299.842,245.537 300.000 M162.487 303.477 C 162.653 303.579,163.014 303.723,163.290 303.797 C 163.638 303.890,163.700 303.874,163.490 303.745 C 163.325 303.643,162.964 303.499,162.688 303.425 C 162.340 303.332,162.278 303.347,162.487 303.477 M166.600 304.915 C 166.820 305.010,167.136 305.087,167.302 305.087 C 167.492 305.087,167.454 305.023,167.202 304.915 C 166.981 304.820,166.665 304.742,166.499 304.742 C 166.310 304.742,166.347 304.806,166.600 304.915 M232.598 304.915 C 232.345 305.023,232.308 305.087,232.497 305.087 C 232.663 305.087,232.979 305.010,233.200 304.915 C 233.452 304.806,233.490 304.742,233.300 304.742 C 233.134 304.742,232.818 304.820,232.598 304.915 M185.406 309.065 C 185.599 309.116,185.915 309.116,186.108 309.065 C 186.301 309.015,186.143 308.973,185.757 308.973 C 185.371 308.973,185.213 309.015,185.406 309.065 M213.691 309.065 C 213.884 309.116,214.200 309.116,214.393 309.065 C 214.586 309.015,214.428 308.973,214.042 308.973 C 213.656 308.973,213.498 309.015,213.691 309.065 M187.212 309.266 C 187.405 309.316,187.721 309.316,187.914 309.266 C 188.107 309.215,187.949 309.174,187.563 309.174 C 187.177 309.174,187.019 309.215,187.212 309.266 M211.988 309.269 C 212.238 309.317,212.599 309.315,212.791 309.265 C 212.982 309.215,212.778 309.176,212.337 309.178 C 211.896 309.180,211.739 309.221,211.988 309.269 M189.218 309.466 C 189.411 309.517,189.727 309.517,189.920 309.466 C 190.113 309.416,189.955 309.375,189.569 309.375 C 189.183 309.375,189.025 309.416,189.218 309.466 M209.982 309.470 C 210.232 309.518,210.593 309.516,210.785 309.466 C 210.976 309.416,210.772 309.376,210.331 309.379 C 209.890 309.381,209.733 309.422,209.982 309.470 M191.427 309.673 C 191.732 309.719,192.183 309.717,192.430 309.670 C 192.677 309.622,192.427 309.584,191.876 309.586 C 191.324 309.587,191.122 309.626,191.427 309.673 M207.475 309.673 C 207.780 309.719,208.231 309.717,208.478 309.670 C 208.725 309.622,208.475 309.584,207.924 309.586 C 207.372 309.587,207.170 309.626,207.475 309.673 M194.433 309.877 C 194.957 309.918,195.815 309.918,196.339 309.877 C 196.863 309.835,196.434 309.802,195.386 309.802 C 194.338 309.802,193.909 309.835,194.433 309.877 M203.460 309.877 C 203.984 309.918,204.842 309.918,205.366 309.877 C 205.890 309.835,205.461 309.802,204.413 309.802 C 203.365 309.802,202.936 309.835,203.460 309.877 " stroke="none" fill="#8bdbfb" fill-rule="evenodd"></path><path id="path1" d="M196.582 30.788 C 194.426 31.496,190.680 32.719,188.257 33.505 C 181.496 35.700,176.739 37.246,168.205 40.024 C 163.902 41.425,158.485 43.183,156.169 43.932 C 153.852 44.680,148.480 46.425,144.233 47.808 C 139.985 49.192,134.704 50.908,132.497 51.622 C 130.291 52.336,126.499 53.568,124.072 54.358 C 121.645 55.149,115.581 57.121,110.597 58.741 L 101.535 61.685 95.041 70.612 C 91.470 75.522,80.973 89.965,71.715 102.708 C 62.456 115.451,51.564 130.436,47.508 136.008 L 40.136 146.138 40.128 198.321 L 40.120 250.504 46.807 259.706 C 50.485 264.766,60.217 278.159,68.433 289.468 C 76.650 300.777,87.452 315.645,92.439 322.508 L 101.506 334.986 109.479 337.587 C 113.864 339.017,120.838 341.285,124.975 342.628 C 129.112 343.970,134.393 345.685,136.710 346.440 C 139.027 347.195,142.728 348.399,144.935 349.116 C 147.141 349.833,152.422 351.549,156.670 352.929 C 160.918 354.310,167.869 356.569,172.116 357.948 C 176.364 359.328,181.803 361.095,184.202 361.875 C 186.601 362.656,190.528 363.932,192.928 364.711 C 195.328 365.490,198.087 366.386,199.059 366.702 L 200.826 367.277 205.478 365.769 C 208.037 364.940,212.071 363.630,214.443 362.859 C 220.500 360.889,239.831 354.609,249.850 351.356 C 254.483 349.851,261.750 347.488,265.998 346.105 C 270.246 344.721,275.527 343.006,277.733 342.293 C 279.940 341.579,285.221 339.862,289.468 338.476 C 293.716 337.090,297.869 335.740,298.696 335.476 L 300.201 334.996 306.337 326.525 C 309.712 321.866,319.196 308.801,327.414 297.492 C 335.631 286.184,345.859 272.101,350.144 266.199 C 354.428 260.296,358.732 254.373,359.709 253.038 L 361.484 250.609 361.484 198.353 L 361.484 146.096 356.613 139.397 C 353.934 135.713,348.759 128.591,345.112 123.571 C 336.092 111.153,309.421 74.444,304.303 67.401 L 300.147 61.683 292.852 59.313 C 285.651 56.975,277.531 54.336,262.538 49.461 C 252.156 46.087,239.485 41.971,230.993 39.216 C 227.131 37.964,221.986 36.292,219.559 35.502 C 205.449 30.911,201.003 29.489,200.766 29.495 C 200.621 29.498,198.738 30.080,196.582 30.788 M205.028 35.256 C 207.267 38.317,215.730 49.895,223.834 60.983 C 231.938 72.071,238.630 81.212,238.705 81.296 C 238.780 81.380,252.466 77.069,269.119 71.716 C 285.773 66.363,299.556 61.933,299.749 61.871 C 300.081 61.765,300.100 62.407,300.100 73.474 C 300.100 79.917,300.160 94.400,300.234 105.657 L 300.367 126.125 320.845 132.856 C 332.109 136.559,345.817 141.060,351.307 142.860 C 357.360 144.843,361.258 146.218,361.207 146.351 C 361.144 146.514,336.006 181.425,324.938 196.719 L 323.755 198.353 332.350 210.260 C 337.077 216.808,345.528 228.516,351.130 236.277 C 356.732 244.037,361.261 250.441,361.195 250.507 C 361.129 250.573,347.424 255.109,330.738 260.587 L 300.401 270.547 300.279 285.976 C 300.212 294.461,300.145 308.919,300.129 318.104 C 300.110 329.410,300.034 334.804,299.894 334.804 C 299.780 334.804,286.065 330.426,269.416 325.075 C 252.768 319.724,239.055 315.346,238.945 315.346 C 238.834 315.346,230.283 326.923,219.942 341.073 C 198.676 370.173,200.831 367.294,200.602 366.901 C 200.506 366.735,195.770 360.236,190.079 352.457 C 184.387 344.679,175.964 333.147,171.360 326.832 C 163.703 316.328,162.946 315.355,162.487 315.434 C 162.212 315.481,148.481 319.858,131.976 325.162 C 115.470 330.465,101.862 334.804,101.735 334.804 C 101.563 334.804,101.499 327.364,101.482 305.266 C 101.469 289.020,101.401 274.560,101.331 273.133 L 101.204 270.539 95.888 268.786 C 92.964 267.822,84.524 265.047,77.131 262.619 C 69.739 260.192,58.431 256.478,52.002 254.366 C 43.726 251.647,40.356 250.456,40.459 250.288 C 40.540 250.157,45.882 242.738,52.331 233.801 C 75.622 201.528,77.377 199.091,77.629 198.682 C 77.860 198.308,77.728 198.052,76.283 196.074 C 75.401 194.868,68.592 185.441,61.150 175.125 C 53.708 164.809,45.969 154.083,43.952 151.288 C 41.935 148.494,40.316 146.185,40.353 146.159 C 40.391 146.132,50.216 142.897,62.187 138.971 C 74.157 135.044,87.825 130.560,92.560 129.006 C 97.294 127.453,101.221 126.128,101.286 126.063 C 101.351 125.998,101.432 111.509,101.467 93.865 C 101.501 76.221,101.559 61.785,101.596 61.785 C 101.633 61.785,115.281 66.164,131.925 71.516 C 148.569 76.868,162.336 81.295,162.519 81.353 C 162.773 81.434,167.292 75.385,181.776 55.577 C 192.186 41.342,200.760 29.693,200.830 29.692 C 200.900 29.690,202.790 32.194,205.028 35.256 M195.085 88.875 C 143.359 90.969,99.634 129.495,90.975 180.608 C 79.537 248.128,131.502 309.728,199.900 309.728 C 255.513 309.728,302.514 268.354,309.511 213.240 C 318.140 145.280,263.687 86.098,195.085 88.875 M134.203 199.416 L 134.203 229.925 133.350 229.794 C 124.023 228.361,116.970 222.516,114.466 214.142 C 114.053 212.760,114.045 212.399,113.989 190.822 L 113.932 168.907 124.067 168.907 L 134.203 168.907 134.203 199.416 M160.233 190.822 C 160.169 214.913,160.257 213.153,158.955 216.443 C 156.242 223.301,148.919 228.705,140.873 229.786 L 139.819 229.927 139.819 199.417 L 139.819 168.907 150.055 168.907 L 160.291 168.907 160.233 190.822 M196.308 179.539 C 197.872 185.331,201.423 198.511,204.200 208.826 C 206.977 219.142,209.295 227.741,209.352 227.934 C 209.449 228.265,208.875 228.285,199.243 228.285 L 189.030 228.285 187.502 222.618 C 186.661 219.501,183.525 207.879,180.534 196.790 C 177.543 185.702,175.084 176.487,175.070 176.312 C 175.056 176.138,175.618 174.399,176.318 172.448 L 177.591 168.902 185.528 168.955 L 193.465 169.007 196.308 179.539 M221.021 173.470 C 228.374 200.686,235.707 227.969,235.707 228.111 C 235.707 228.212,231.329 228.266,225.527 228.237 L 215.347 228.185 211.508 213.942 C 209.397 206.108,206.260 194.472,204.537 188.083 C 200.846 174.397,201.133 176.775,202.654 172.470 L 203.912 168.912 211.850 168.909 L 219.788 168.907 221.021 173.470 M246.540 169.050 C 246.540 169.277,234.889 194.463,234.686 194.674 C 234.576 194.789,234.504 189.711,234.504 181.886 L 234.504 168.907 240.522 168.907 C 243.831 168.907,246.540 168.971,246.540 169.050 M270.612 198.596 L 270.612 228.285 260.582 228.285 L 250.552 228.285 250.552 198.596 L 250.552 168.907 260.582 168.907 L 270.612 168.907 270.612 198.596 M285.809 181.896 C 285.837 188.984,285.791 194.784,285.706 194.784 C 285.621 194.784,282.896 189.030,279.652 181.996 C 276.407 174.962,273.716 169.139,273.673 169.054 C 273.629 168.970,276.330 168.925,279.675 168.954 L 285.757 169.007 285.809 181.896 M173.165 188.716 C 173.215 189.020,175.437 197.909,178.103 208.471 C 180.768 219.032,182.949 227.811,182.949 227.979 C 182.949 228.249,181.760 228.285,172.818 228.285 C 167.247 228.285,162.688 228.226,162.688 228.154 C 162.688 228.082,163.947 223.050,165.485 216.971 C 167.023 210.892,169.234 202.126,170.398 197.492 C 172.922 187.448,172.729 188.164,172.919 188.164 C 173.004 188.164,173.115 188.413,173.165 188.716 M199.408 375.330 C 197.469 377.747,197.846 377.605,195.181 376.925 C 193.915 376.602,192.811 376.336,192.728 376.333 C 192.645 376.331,192.567 376.893,192.554 377.583 C 192.541 378.272,192.474 379.413,192.404 380.118 L 192.277 381.400 190.075 382.259 C 187.405 383.302,187.482 383.084,188.958 385.426 C 190.425 387.755,190.424 387.379,188.967 389.669 C 187.462 392.034,187.373 391.761,189.980 392.782 C 192.626 393.819,192.318 393.382,192.491 396.346 C 192.570 397.694,192.678 398.796,192.732 398.796 C 192.786 398.796,193.902 398.511,195.213 398.163 C 196.524 397.814,197.624 397.566,197.659 397.611 C 198.689 398.955,200.706 401.204,200.883 401.204 C 201.014 401.204,201.455 400.775,201.864 400.251 C 202.272 399.727,202.947 398.908,203.363 398.430 L 204.120 397.563 206.517 398.169 C 209.370 398.890,209.034 399.123,209.172 396.322 C 209.310 393.515,209.085 393.831,211.687 392.792 C 214.339 391.733,214.234 392.052,212.716 389.669 C 211.181 387.260,211.176 387.842,212.749 385.370 C 213.471 384.234,214.036 383.277,214.002 383.244 C 213.969 383.212,212.994 382.808,211.836 382.347 C 209.121 381.267,209.305 381.512,209.173 378.819 C 209.110 377.540,209.017 376.453,208.966 376.402 C 208.893 376.329,206.208 376.945,204.403 377.447 C 204.200 377.504,203.550 376.875,202.524 375.628 C 200.645 373.344,200.975 373.375,199.408 375.330 " stroke="none" fill="#2b94d4" fill-rule="evenodd"></path><path id="path2" d="M194.283 86.779 C 193.731 86.820,191.971 86.949,190.371 87.066 C 148.734 90.104,110.644 118.369,95.221 157.673 C 68.908 224.727,110.638 298.532,181.545 310.348 C 245.930 321.078,306.235 274.443,312.045 209.428 C 317.600 147.264,271.956 92.674,209.729 87.057 C 207.313 86.839,196.160 86.638,194.283 86.779 M209.829 88.965 C 280.701 95.363,327.365 166.365,305.086 233.902 C 284.506 296.288,214.100 327.233,154.306 300.173 C 83.812 268.271,66.948 175.761,121.653 121.050 C 141.646 101.055,165.031 90.703,194.985 88.588 C 197.268 88.427,206.451 88.660,209.829 88.965 M113.993 190.522 C 114.072 215.974,113.971 215.081,117.336 220.036 C 120.712 225.008,128.645 229.689,133.693 229.689 C 133.970 229.689,134.002 226.548,134.002 199.298 L 134.002 168.907 123.964 168.907 L 113.925 168.907 113.993 190.522 M139.819 199.324 L 139.819 229.741 140.994 229.608 C 148.308 228.781,155.420 223.720,158.497 217.154 C 160.256 213.400,160.154 214.972,160.230 190.522 L 160.298 168.907 150.059 168.907 L 139.819 168.907 139.819 199.324 M177.629 169.157 C 177.579 169.295,176.993 170.932,176.327 172.795 L 175.116 176.182 180.259 195.263 C 183.087 205.757,186.228 217.412,187.238 221.163 L 189.075 227.984 199.151 228.036 C 204.693 228.065,209.228 228.050,209.228 228.004 C 209.228 227.958,207.429 221.254,205.231 213.107 C 195.468 176.923,193.380 169.158,193.380 169.036 C 193.380 168.769,177.727 168.890,177.629 169.157 M202.797 172.465 C 201.283 176.706,201.215 175.302,203.308 183.049 C 204.262 186.580,206.757 195.832,208.853 203.611 C 213.921 222.425,215.241 227.314,215.368 227.733 C 215.492 228.146,235.507 228.293,235.507 227.882 C 235.507 227.703,220.708 172.666,219.932 169.960 L 219.631 168.907 211.849 168.907 L 204.067 168.907 202.797 172.465 M234.706 181.695 L 234.708 194.483 235.227 193.380 C 236.033 191.665,245.319 171.568,245.956 170.160 L 246.523 168.907 240.613 168.907 L 234.704 168.907 234.706 181.695 M250.552 198.495 L 250.552 228.084 260.481 228.084 L 270.411 228.084 270.411 198.495 L 270.411 168.907 260.481 168.907 L 250.552 168.907 250.552 198.495 M273.821 169.005 C 273.821 169.144,284.601 192.493,285.168 193.581 L 285.638 194.483 285.648 181.695 L 285.657 168.907 279.739 168.907 C 276.484 168.907,273.821 168.951,273.821 169.005 M167.915 207.890 C 165.219 218.611,162.974 227.540,162.927 227.733 C 162.847 228.064,163.421 228.084,172.879 228.084 L 182.915 228.084 177.935 208.309 C 175.196 197.433,172.924 188.504,172.886 188.466 C 172.848 188.428,170.611 197.169,167.915 207.890 " stroke="none" fill="#eef6fb" fill-rule="evenodd"></path><path id="path3" d="M197.100 0.251 C 197.024 0.492,196.945 1.866,196.285 14.443 C 196.120 17.588,195.928 20.950,195.858 21.916 L 195.730 23.671 197.163 23.671 C 197.951 23.671,198.597 23.648,198.599 23.621 C 198.601 23.593,198.732 21.179,198.891 18.255 C 199.447 7.986,199.668 4.215,199.712 4.264 C 199.736 4.291,200.205 5.351,200.753 6.620 C 202.776 11.299,208.458 23.976,208.590 24.105 C 208.665 24.179,209.241 24.301,209.871 24.378 L 211.016 24.518 211.538 23.643 C 212.239 22.468,220.813 7.808,221.601 6.438 L 222.225 5.353 222.143 6.237 C 222.098 6.724,221.925 9.829,221.758 13.139 C 221.591 16.449,221.374 20.421,221.276 21.964 C 221.071 25.175,221.021 25.068,222.714 25.072 C 224.133 25.076,223.965 25.841,224.372 17.553 C 224.551 13.912,224.821 8.812,224.972 6.221 C 225.123 3.629,225.231 1.495,225.211 1.478 C 225.192 1.461,224.331 1.415,223.298 1.375 L 221.420 1.304 218.610 6.118 C 215.320 11.753,210.180 20.540,210.132 20.611 C 210.096 20.665,209.241 18.759,204.311 7.623 C 202.577 3.706,201.067 0.389,200.956 0.251 C 200.674 -0.099,197.210 -0.099,197.100 0.251 M181.946 1.008 C 180.456 1.208,176.891 1.653,174.022 1.997 C 166.358 2.916,166.792 2.830,166.846 3.416 C 166.905 4.061,167.576 9.669,168.202 14.744 C 168.474 16.951,168.890 20.426,169.128 22.467 C 169.647 26.927,169.362 26.576,172.140 26.192 C 174.190 25.910,180.802 25.097,186.294 24.454 C 188.813 24.158,188.732 24.215,188.614 22.818 C 188.498 21.452,188.651 21.488,184.966 21.966 C 180.401 22.559,172.848 23.470,172.503 23.470 C 172.253 23.470,172.116 23.254,172.028 22.718 C 171.776 21.182,171.134 15.359,171.208 15.284 C 171.251 15.242,173.436 14.947,176.064 14.630 C 178.692 14.313,181.429 13.965,182.146 13.857 C 182.864 13.749,184.157 13.598,185.021 13.521 L 186.592 13.382 186.453 12.157 C 186.377 11.484,186.281 10.897,186.241 10.854 C 186.201 10.810,184.879 10.924,183.304 11.105 C 178.545 11.655,172.261 12.421,171.504 12.544 L 170.792 12.660 170.341 9.007 C 170.094 6.998,169.963 5.293,170.051 5.217 C 170.139 5.142,172.648 4.790,175.627 4.435 C 178.606 4.080,182.148 3.646,183.498 3.470 L 185.953 3.149 185.842 2.327 C 185.573 0.318,186.001 0.463,181.946 1.008 M237.446 5.367 C 237.244 6.222,236.645 8.726,236.114 10.933 C 235.583 13.139,234.853 16.209,234.491 17.753 C 234.128 19.298,233.500 21.916,233.094 23.571 C 232.689 25.226,232.413 26.645,232.483 26.725 C 232.592 26.852,235.328 27.530,244.835 29.784 C 248.975 30.766,250.451 31.122,250.784 31.215 C 251.094 31.303,251.555 29.979,251.555 28.999 C 251.555 28.680,252.235 28.866,243.129 26.692 C 239.102 25.730,235.807 24.860,235.807 24.759 C 235.807 24.143,237.636 16.851,237.790 16.851 C 237.893 16.851,241.223 17.624,245.190 18.569 C 253.292 20.499,252.796 20.469,253.123 19.049 C 253.435 17.700,254.218 18.024,245.813 16.023 C 241.783 15.064,238.438 14.232,238.381 14.175 C 238.323 14.117,238.668 12.457,239.148 10.487 L 240.020 6.903 247.832 8.762 C 252.129 9.785,255.674 10.592,255.710 10.555 C 255.854 10.411,256.242 8.231,256.142 8.131 C 256.020 8.010,238.438 3.811,238.059 3.813 C 237.918 3.813,237.656 4.479,237.446 5.367 M143.420 7.896 C 133.860 10.427,130.476 20.501,136.529 28.404 C 141.518 34.916,153.104 33.765,156.815 26.389 L 157.604 24.821 158.265 26.653 C 158.975 28.621,159.004 28.644,160.308 28.253 C 161.294 27.958,161.519 29.078,158.338 18.455 C 158.058 17.518,157.781 16.587,157.724 16.388 C 157.667 16.189,157.510 16.068,157.375 16.120 C 157.239 16.172,154.927 16.862,152.235 17.654 C 146.577 19.320,146.922 19.127,147.242 20.461 C 147.572 21.837,147.391 21.836,151.933 20.483 L 155.919 19.296 155.824 21.283 C 155.405 29.976,142.854 33.453,138.529 26.074 C 136.535 22.671,136.031 18.184,137.334 15.434 C 140.160 9.469,150.151 8.132,153.159 13.316 C 153.348 13.641,153.443 13.636,154.714 13.242 C 156.244 12.768,156.289 12.663,155.502 11.423 C 153.346 8.031,148.383 6.581,143.420 7.896 M266.926 11.795 C 266.872 11.882,265.637 14.794,264.182 18.264 C 262.727 21.734,261.195 25.386,260.778 26.379 C 259.078 30.422,257.974 33.145,257.974 33.292 C 257.974 33.445,260.392 34.571,260.481 34.459 C 260.505 34.429,262.186 30.411,264.215 25.532 C 266.244 20.652,267.949 16.659,268.004 16.657 C 268.059 16.655,268.459 17.849,268.893 19.310 C 269.326 20.771,270.108 23.365,270.629 25.075 C 271.150 26.785,272.269 30.486,273.114 33.300 C 275.621 41.644,275.208 40.731,276.769 41.377 C 277.505 41.682,278.177 41.863,278.261 41.779 C 278.441 41.598,287.240 20.697,287.313 20.278 C 287.371 19.945,285.085 18.944,284.841 19.196 C 284.755 19.285,284.323 20.216,283.880 21.264 C 280.701 28.785,279.953 30.565,278.720 33.536 C 277.957 35.376,277.275 36.775,277.206 36.645 C 277.136 36.515,275.977 32.708,274.630 28.185 C 273.282 23.661,271.835 18.831,271.414 17.452 C 270.993 16.073,270.508 14.448,270.336 13.842 C 270.025 12.740,270.022 12.737,268.663 12.185 C 267.179 11.582,267.072 11.558,266.926 11.795 M111.184 21.118 L 109.930 21.751 109.935 23.965 C 109.937 25.182,110.023 28.255,110.125 30.792 C 110.227 33.330,110.414 38.159,110.541 41.525 C 110.667 44.890,110.797 47.671,110.830 47.705 C 110.863 47.739,111.482 47.498,112.205 47.170 C 113.486 46.589,113.519 46.556,113.438 45.905 C 113.393 45.537,113.310 43.780,113.254 42.001 L 113.152 38.766 118.497 36.125 C 121.436 34.673,123.938 33.523,124.057 33.569 C 124.176 33.616,125.520 34.703,127.044 35.985 C 128.569 37.266,129.853 38.315,129.899 38.315 C 130.131 38.315,132.598 37.005,132.598 36.882 C 132.598 36.727,112.704 20.456,112.538 20.474 C 112.482 20.480,111.873 20.770,111.184 21.118 M117.251 27.807 L 121.753 31.542 120.806 32.012 C 120.286 32.270,118.314 33.247,116.425 34.183 L 112.989 35.885 112.955 33.940 C 112.936 32.871,112.836 30.461,112.733 28.586 C 112.512 24.577,112.502 24.072,112.644 24.072 C 112.702 24.072,114.775 25.753,117.251 27.807 M295.424 25.603 C 294.677 26.840,294.556 26.702,298.524 29.145 C 300.439 30.324,302.119 31.363,302.258 31.454 C 302.441 31.575,301.185 33.756,297.665 39.431 C 291.171 49.901,291.369 49.557,291.702 49.780 C 293.199 50.783,293.718 51.001,293.965 50.730 C 294.105 50.577,296.636 46.544,299.591 41.768 C 304.794 33.361,304.978 33.094,305.391 33.365 C 305.736 33.590,311.568 37.223,312.482 37.781 C 312.722 37.927,313.930 36.277,313.938 35.790 C 313.940 35.670,312.430 34.639,310.582 33.498 C 308.734 32.357,304.767 29.905,301.766 28.049 C 295.490 24.166,296.140 24.417,295.424 25.603 M90.672 32.596 C 89.487 33.509,88.529 31.872,97.466 44.201 C 99.373 46.831,100.899 49.017,100.858 49.059 C 100.774 49.142,97.002 48.181,85.023 45.025 C 80.647 43.872,76.913 42.929,76.725 42.929 C 76.350 42.929,74.008 44.554,74.079 44.765 C 74.190 45.098,87.782 63.781,87.916 63.786 C 88.320 63.801,90.071 62.460,90.005 62.187 C 89.940 61.921,80.698 49.020,79.203 47.107 L 78.627 46.370 80.788 46.938 C 81.976 47.251,85.567 48.186,88.766 49.015 C 91.966 49.845,96.545 51.034,98.943 51.657 L 103.301 52.790 104.509 51.943 C 105.174 51.477,105.717 51.018,105.717 50.922 C 105.717 50.587,92.139 31.995,91.859 31.948 C 91.703 31.922,91.169 32.213,90.672 32.596 M327.735 61.949 C 321.143 64.452,315.750 66.593,315.749 66.708 C 315.748 66.822,316.176 67.333,316.700 67.844 L 317.653 68.772 321.244 67.382 C 323.220 66.618,324.860 66.016,324.889 66.045 C 324.918 66.075,326.854 67.984,329.190 70.290 L 333.437 74.481 332.115 77.876 C 330.530 81.944,330.550 81.573,331.844 82.820 C 333.087 84.019,332.951 84.113,333.964 81.344 C 334.789 79.087,338.962 67.864,340.964 62.520 L 342.078 59.544 341.006 58.458 C 339.714 57.150,341.851 56.588,327.735 61.949 M58.021 59.632 C 57.443 60.216,56.971 60.793,56.971 60.912 C 56.971 61.100,60.479 70.458,61.285 72.417 C 61.443 72.803,62.517 75.602,63.670 78.636 C 64.823 81.670,65.828 84.310,65.904 84.504 C 66.111 85.035,66.402 84.935,67.344 84.010 C 68.390 82.984,68.388 83.141,67.389 80.606 C 65.776 76.514,65.568 75.853,65.776 75.479 C 65.884 75.284,67.772 73.332,69.972 71.140 L 73.972 67.155 77.432 68.482 C 81.555 70.064,81.139 70.033,82.304 68.850 C 83.572 67.563,83.635 67.641,80.391 66.464 C 76.111 64.911,60.619 59.179,59.375 58.689 C 59.177 58.611,58.703 58.941,58.021 59.632 M338.746 60.735 C 338.653 60.885,335.753 68.394,334.914 70.656 L 334.488 71.804 331.041 68.350 L 327.594 64.895 333.155 62.754 C 339.521 60.303,338.866 60.539,338.746 60.735 M65.443 63.913 C 68.231 64.973,70.670 65.886,70.863 65.942 C 71.338 66.081,71.594 65.769,67.859 69.607 L 64.504 73.054 64.127 72.184 C 63.920 71.706,63.585 70.863,63.384 70.311 C 63.183 69.759,62.506 67.999,61.880 66.399 C 60.456 62.763,60.176 61.986,60.286 61.986 C 60.334 61.986,62.655 62.853,65.443 63.913 M346.339 81.461 C 341.153 85.206,336.882 88.356,336.846 88.461 C 336.779 88.660,337.880 90.365,338.205 90.566 C 338.308 90.629,341.910 88.151,346.211 85.060 C 354.998 78.743,354.329 79.155,353.967 80.291 C 353.818 80.760,352.364 86.231,350.736 92.449 C 347.411 105.148,347.567 103.928,349.034 105.708 L 349.605 106.401 354.592 102.815 C 357.335 100.842,361.598 97.779,364.066 96.008 C 366.534 94.237,368.595 92.677,368.647 92.543 C 368.749 92.278,367.356 90.345,367.111 90.411 C 366.993 90.443,356.653 97.822,352.206 101.048 C 351.682 101.429,351.295 101.619,351.347 101.472 C 351.399 101.324,351.991 99.127,352.663 96.590 C 353.335 94.052,354.116 91.118,354.398 90.070 C 354.680 89.022,355.569 85.693,356.372 82.671 L 357.833 77.178 356.914 75.901 C 356.409 75.199,355.944 74.630,355.881 74.638 C 355.819 74.646,351.525 77.716,346.339 81.461 M41.641 77.651 C 40.697 79.070,40.684 79.112,40.978 79.720 C 41.143 80.062,43.545 84.493,46.315 89.569 C 49.085 94.644,51.271 98.824,51.172 98.857 C 51.073 98.890,48.072 98.547,44.503 98.094 C 40.934 97.642,36.209 97.051,34.002 96.781 C 31.795 96.512,29.790 96.245,29.545 96.188 C 29.097 96.083,27.081 98.559,27.081 99.215 C 27.081 99.356,28.503 100.441,30.241 101.627 C 43.531 110.695,46.076 112.409,46.358 112.484 C 46.949 112.640,48.245 110.297,47.693 110.070 C 46.827 109.715,31.896 99.277,32.397 99.377 C 32.901 99.477,40.187 100.415,51.428 101.826 C 52.738 101.990,53.823 102.098,53.839 102.065 C 53.855 102.033,54.165 101.578,54.529 101.054 L 55.189 100.102 49.903 90.408 L 44.617 80.714 45.829 81.550 C 50.453 84.741,60.462 91.518,60.666 91.596 C 60.881 91.679,62.530 89.514,62.352 89.383 C 60.828 88.261,43.164 76.348,42.936 76.289 C 42.703 76.228,42.319 76.631,41.641 77.651 M364.442 108.266 C 358.623 111.103,353.862 113.493,353.862 113.578 C 353.862 114.436,359.948 126.010,360.910 126.981 C 367.502 133.635,382.481 126.832,381.449 117.653 C 381.252 115.897,375.659 103.109,375.088 103.109 C 375.052 103.109,370.262 105.430,364.442 108.266 M378.344 115.974 C 379.514 119.447,378.002 122.441,373.873 124.831 C 369.129 127.576,365.121 127.549,362.608 124.754 C 361.837 123.897,357.472 115.570,357.472 114.957 C 357.472 114.876,361.186 112.998,365.724 110.785 L 373.976 106.760 375.964 110.785 C 377.057 112.999,378.128 115.334,378.344 115.974 M14.902 124.223 C 14.668 124.912,13.343 128.591,11.957 132.397 C 9.042 140.405,9.195 139.699,10.281 140.104 C 20.689 143.983,31.606 147.789,31.738 147.585 C 31.974 147.221,32.582 145.251,32.483 145.173 C 32.436 145.136,30.140 144.286,27.382 143.284 C 23.901 142.020,22.387 141.380,22.433 141.193 C 22.469 141.044,23.530 138.054,24.790 134.547 C 27.483 127.053,27.329 127.966,25.976 127.521 C 24.524 127.044,24.848 126.493,22.177 133.963 L 19.819 140.560 16.479 139.361 C 14.642 138.701,13.062 138.092,12.968 138.006 C 12.842 137.892,16.250 128.017,17.753 124.142 C 17.854 123.882,17.640 123.720,16.757 123.390 C 15.280 122.837,15.389 122.789,14.902 124.223 M391.374 146.908 C 390.313 147.186,390.329 146.893,391.172 150.652 C 392.232 155.377,392.351 155.960,392.272 156.040 C 392.197 156.115,378.374 159.218,374.303 160.074 C 371.568 160.649,371.690 160.548,372.018 161.958 C 372.373 163.487,372.238 163.433,374.479 162.933 C 384.735 160.643,392.858 158.889,392.921 158.952 C 393.016 159.047,393.561 161.378,394.287 164.794 C 394.950 167.914,394.865 167.798,396.267 167.507 C 397.558 167.239,397.577 167.187,397.098 165.208 C 396.936 164.539,396.033 160.471,395.091 156.169 C 392.710 145.290,393.171 146.438,391.374 146.908 M13.240 152.468 C 1.973 153.764,-1.259 171.415,8.816 176.624 C 17.581 181.157,26.622 176.226,27.699 166.326 C 28.636 157.720,22.092 151.450,13.240 152.468 M17.816 155.786 C 24.473 157.268,27.153 164.149,23.641 170.739 C 19.379 178.734,6.018 175.601,5.468 166.477 C 5.008 158.850,10.443 154.145,17.816 155.786 M396.790 177.263 C 396.515 177.302,393.039 177.556,389.067 177.829 C 377.344 178.632,375.229 178.786,375.168 178.837 C 375.136 178.864,375.258 180.951,375.440 183.475 C 375.621 185.999,375.919 190.268,376.101 192.963 C 376.470 198.423,376.348 198.113,378.048 197.901 L 379.138 197.764 379.035 197.027 C 378.978 196.621,378.752 193.547,378.532 190.196 C 378.312 186.845,378.076 183.496,378.007 182.754 L 377.882 181.406 379.663 181.277 C 380.643 181.206,382.538 181.089,383.874 181.017 L 386.303 180.886 386.439 182.970 C 386.696 186.924,387.404 196.289,387.450 196.339 C 387.476 196.367,388.063 196.331,388.754 196.258 L 390.012 196.127 389.892 194.503 C 389.826 193.610,389.633 191.028,389.463 188.766 C 389.293 186.505,389.135 183.751,389.111 182.648 L 389.067 180.642 390.471 180.520 C 391.244 180.453,392.880 180.336,394.108 180.260 L 396.341 180.122 396.465 181.184 C 396.533 181.769,396.771 185.000,396.993 188.365 C 397.215 191.730,397.451 194.867,397.517 195.336 L 397.638 196.189 398.846 196.189 L 400.054 196.189 399.944 193.731 C 399.805 190.611,399.030 179.113,398.883 177.984 C 398.764 177.069,398.586 177.008,396.790 177.263 M0.000 201.869 L 0.000 203.537 5.266 207.122 C 8.162 209.093,10.738 210.863,10.990 211.055 L 11.449 211.403 6.869 215.381 C 4.350 217.568,1.999 219.600,1.646 219.897 C 1.159 220.305,1.003 220.597,1.005 221.100 C 1.008 222.156,1.247 223.872,1.392 223.872 C 1.489 223.872,10.605 215.989,14.078 212.901 C 14.356 212.654,20.511 212.122,24.022 212.042 C 24.292 212.036,24.368 210.508,24.141 209.658 C 24.019 209.203,23.964 209.190,22.589 209.309 C 21.805 209.377,19.608 209.521,17.707 209.630 L 14.251 209.827 7.237 205.014 C 3.379 202.367,0.172 200.201,0.111 200.201 C 0.050 200.201,0.000 200.951,0.000 201.869 M384.831 205.405 C 376.701 206.683,372.225 216.077,376.046 223.841 C 377.746 227.296,383.202 230.782,383.622 228.682 C 383.861 227.485,383.777 226.676,383.400 226.550 C 378.592 224.945,376.633 221.319,377.616 215.848 C 378.715 209.737,384.678 206.758,391.270 209.026 C 399.557 211.877,399.019 225.284,390.551 226.970 C 389.999 227.080,389.511 229.310,389.944 229.743 C 390.172 229.971,391.955 229.641,393.380 229.107 C 398.902 227.038,401.560 217.637,398.342 211.557 C 396.098 207.318,390.084 204.580,384.831 205.405 M3.310 230.541 C 2.758 230.653,2.282 230.765,2.252 230.789 C 2.196 230.836,6.355 250.871,6.506 251.281 C 6.586 251.498,8.693 251.153,8.969 250.878 C 9.025 250.821,8.658 248.811,8.153 246.411 C 7.648 244.010,7.254 242.027,7.278 242.004 C 7.302 241.980,9.127 241.588,11.334 241.132 C 13.541 240.676,16.158 240.131,17.151 239.920 C 18.144 239.709,20.935 239.127,23.353 238.626 C 25.770 238.125,27.779 237.684,27.816 237.648 C 27.889 237.574,27.490 235.280,27.369 235.085 C 27.292 234.960,26.287 235.136,22.166 235.994 C 6.333 239.291,6.828 239.192,6.708 239.072 C 6.625 238.989,4.814 230.671,4.814 230.372 C 4.814 230.264,4.510 230.298,3.310 230.541 M372.863 236.042 C 372.702 236.313,372.245 238.512,372.335 238.586 C 372.380 238.623,374.178 239.121,376.329 239.694 C 383.264 241.539,382.856 241.390,382.801 242.051 C 382.750 242.683,378.856 257.118,378.694 257.281 C 378.607 257.367,374.725 256.373,369.713 254.981 C 368.888 254.751,368.112 254.564,367.990 254.564 C 367.807 254.564,367.234 256.388,367.208 257.049 C 367.205 257.147,368.826 257.667,370.812 258.205 C 372.798 258.742,377.930 260.136,382.216 261.301 C 386.501 262.466,390.030 263.390,390.057 263.354 C 390.166 263.211,390.799 260.743,390.738 260.699 C 390.702 260.673,388.606 260.097,386.080 259.418 C 383.555 258.740,381.448 258.145,381.399 258.096 C 381.321 258.018,383.203 250.868,384.998 244.422 L 385.615 242.205 390.331 243.482 C 393.669 244.386,395.087 244.692,395.188 244.530 C 395.361 244.250,395.850 242.113,395.755 242.050 C 395.718 242.026,393.791 241.494,391.474 240.870 C 389.157 240.245,384.283 238.925,380.642 237.936 C 372.486 235.721,372.983 235.842,372.863 236.042 M20.627 256.538 C 14.595 258.488,9.596 260.147,9.518 260.225 C 9.341 260.401,10.068 262.784,10.300 262.787 C 10.605 262.790,32.393 255.734,32.557 255.579 C 32.776 255.372,32.085 252.955,31.813 252.975 C 31.693 252.985,26.659 254.588,20.627 256.538 M29.552 265.155 C 25.334 266.661,24.727 269.023,26.576 276.730 C 27.370 280.040,27.740 282.330,27.577 282.923 C 26.404 287.178,22.349 286.634,19.904 281.893 C 17.886 277.981,18.020 274.864,20.274 273.270 C 21.197 272.617,21.198 272.614,20.569 271.264 C 19.997 270.035,20.006 270.037,18.846 270.785 C 15.852 272.715,15.006 276.092,16.427 280.441 C 18.423 286.551,22.394 289.674,26.517 288.376 C 30.572 287.099,31.311 284.108,29.423 276.623 C 28.032 271.107,28.157 269.315,30.007 268.265 C 32.664 266.756,34.923 268.008,36.919 272.095 C 39.186 276.736,38.892 279.554,35.916 281.739 L 34.942 282.454 35.472 283.654 C 36.096 285.066,36.042 285.053,37.414 284.142 C 41.142 281.668,42.019 277.854,40.059 272.637 C 37.822 266.682,33.631 263.698,29.552 265.155 M363.656 266.198 C 363.363 266.859,363.184 267.437,363.257 267.482 C 363.330 267.527,365.647 268.621,368.405 269.914 C 371.163 271.207,374.052 272.561,374.824 272.923 C 375.597 273.286,377.281 274.071,378.567 274.667 L 380.906 275.752 370.042 278.534 C 364.066 280.063,358.519 281.491,357.713 281.706 L 356.249 282.098 355.657 283.270 C 355.331 283.914,355.065 284.568,355.065 284.722 C 355.065 284.892,357.048 285.929,360.097 287.354 C 362.865 288.648,366.047 290.138,367.169 290.665 C 368.290 291.192,370.778 292.362,372.697 293.265 C 374.616 294.167,376.287 294.867,376.411 294.819 C 376.636 294.733,377.645 292.506,377.506 292.402 C 377.465 292.372,373.506 290.513,368.706 288.271 C 363.907 286.028,359.957 284.176,359.929 284.155 C 359.853 284.099,383.808 278.033,384.104 278.033 C 384.357 278.034,385.918 275.112,385.748 274.957 C 385.562 274.789,364.545 264.995,364.369 264.995 C 364.269 264.995,363.948 265.536,363.656 266.198 M45.239 287.696 C 44.800 288.148,43.717 289.061,42.832 289.725 C 39.279 292.391,38.251 293.926,38.697 295.903 L 38.853 296.596 37.753 296.041 C 33.771 294.032,28.633 297.375,28.935 301.778 C 29.068 303.714,29.566 304.749,32.648 309.484 C 34.065 311.660,35.761 314.274,36.418 315.293 C 37.872 317.547,37.335 317.590,41.477 314.893 C 43.381 313.653,47.782 310.788,51.256 308.527 C 54.730 306.266,57.573 304.347,57.573 304.262 C 57.573 304.014,56.284 302.114,56.113 302.110 C 56.028 302.108,54.061 303.337,51.743 304.841 C 49.425 306.345,47.502 307.541,47.469 307.499 C 46.612 306.395,41.775 298.602,41.504 297.888 C 40.614 295.546,41.296 294.276,44.734 291.876 C 47.878 289.681,48.008 289.459,47.013 287.961 C 46.145 286.653,46.239 286.667,45.239 287.696 M350.752 296.062 C 342.087 298.556,337.946 309.452,343.060 316.301 C 349.686 325.175,362.229 322.571,366.020 311.535 C 368.937 303.044,359.548 293.530,350.752 296.062 M37.648 298.425 C 38.626 298.889,39.330 299.800,42.514 304.714 L 45.308 309.027 41.867 311.272 C 39.974 312.506,38.412 313.499,38.396 313.478 C 37.634 312.472,32.483 304.291,32.139 303.541 C 30.677 300.350,34.406 296.887,37.648 298.425 M355.448 298.804 C 362.336 300.428,365.730 307.740,362.242 313.440 C 358.275 319.924,351.365 320.624,345.999 315.085 C 339.733 308.619,346.635 296.727,355.448 298.804 M61.171 311.301 L 60.286 312.086 61.688 313.652 C 62.459 314.513,64.916 317.243,67.149 319.719 C 69.381 322.194,71.166 324.288,71.114 324.371 C 71.063 324.455,69.684 325.743,68.050 327.234 L 65.079 329.944 59.972 324.253 C 54.301 317.934,54.738 318.269,53.542 319.330 L 52.670 320.104 53.567 321.098 C 54.060 321.644,56.408 324.252,58.784 326.893 L 63.105 331.695 60.425 334.102 C 58.952 335.426,57.677 336.535,57.593 336.565 C 57.468 336.611,47.772 326.009,47.018 325.002 C 46.777 324.680,44.935 325.963,44.935 326.453 C 44.935 326.663,46.807 328.785,54.339 337.111 C 55.936 338.877,57.361 340.321,57.505 340.321 C 57.649 340.321,61.570 336.891,66.217 332.698 C 70.865 328.506,74.748 325.045,74.847 325.008 C 75.328 324.828,75.303 324.799,65.680 314.142 C 62.030 310.100,62.318 310.282,61.171 311.301 M327.572 321.716 C 325.537 323.785,322.789 326.587,321.466 327.944 L 319.060 330.410 319.945 331.203 C 320.432 331.639,320.898 331.996,320.980 331.996 C 321.120 331.996,328.785 324.308,330.534 322.414 L 331.324 321.557 337.327 327.429 C 347.721 337.595,346.269 336.539,347.777 335.031 L 348.460 334.349 342.685 328.717 C 339.509 325.620,335.733 321.931,334.294 320.520 C 332.854 319.109,331.586 317.954,331.475 317.954 C 331.364 317.954,329.607 319.647,327.572 321.716 M75.939 341.395 C 69.656 344.574,64.493 347.258,64.465 347.359 C 64.437 347.460,64.901 347.933,65.497 348.410 L 66.580 349.277 69.649 347.681 C 78.409 343.126,86.103 339.196,86.152 339.253 C 86.182 339.289,84.913 343.922,83.331 349.549 C 79.987 361.443,80.147 360.414,81.478 361.473 C 82.707 362.452,82.857 362.434,83.164 361.270 C 83.854 358.661,84.485 356.326,85.058 354.263 C 85.411 352.994,86.042 350.692,86.461 349.147 C 86.879 347.603,87.726 344.476,88.343 342.198 C 88.960 339.921,89.515 337.927,89.576 337.767 C 89.666 337.532,87.738 335.594,87.430 335.611 C 87.393 335.613,82.222 338.215,75.939 341.395 M310.531 338.513 C 306.355 339.346,302.197 342.459,300.336 346.147 C 295.947 354.842,303.873 365.573,313.451 363.905 C 317.287 363.237,321.611 360.205,323.527 356.842 C 328.536 348.048,320.382 336.547,310.531 338.513 M313.950 341.225 C 320.018 342.376,323.895 349.785,321.259 355.194 C 316.910 364.119,304.671 362.735,302.185 353.037 C 300.583 346.788,307.367 339.977,313.950 341.225 M101.678 349.301 C 100.947 350.430,98.081 354.847,95.309 359.116 C 92.538 363.385,90.271 366.964,90.271 367.069 C 90.271 367.280,92.095 368.506,92.410 368.506 C 92.519 368.506,93.820 366.635,95.301 364.348 C 96.782 362.061,98.823 358.925,99.837 357.377 C 102.698 353.010,105.316 348.914,105.316 348.803 C 105.316 348.711,103.185 347.238,103.062 347.245 C 103.033 347.246,102.410 348.171,101.678 349.301 M112.148 354.722 C 111.758 355.556,107.563 364.121,102.866 373.675 C 102.526 374.367,102.284 374.955,102.328 374.982 C 102.740 375.236,104.777 376.132,104.827 376.082 C 104.863 376.047,106.818 372.093,109.171 367.297 L 113.450 358.576 114.416 362.688 C 114.947 364.950,115.604 367.748,115.875 368.907 C 116.147 370.065,116.627 372.096,116.942 373.420 C 117.257 374.744,117.903 377.483,118.378 379.507 L 119.242 383.187 120.599 383.870 C 122.321 384.738,122.165 384.783,122.906 383.200 C 123.255 382.455,125.496 377.874,127.887 373.019 C 130.279 368.164,132.314 363.990,132.411 363.742 C 132.569 363.337,130.389 361.821,130.086 362.124 C 129.994 362.216,121.973 378.533,121.722 379.137 L 121.514 379.639 121.338 379.037 C 121.150 378.393,116.805 360.286,116.054 357.016 C 115.806 355.937,115.568 355.023,115.525 354.984 C 115.346 354.821,112.938 353.662,112.794 353.669 C 112.708 353.674,112.418 354.148,112.148 354.722 M281.344 356.400 C 276.282 357.479,272.759 360.396,271.404 364.630 L 270.943 366.071 270.051 364.530 C 269.560 363.682,269.092 362.916,269.011 362.827 C 268.807 362.603,266.975 363.522,267.045 363.814 C 267.176 364.361,272.311 374.724,272.452 374.724 C 272.732 374.724,282.347 369.877,282.335 369.741 C 282.290 369.266,281.374 367.703,281.140 367.703 C 280.983 367.703,279.230 368.510,277.244 369.497 L 273.633 371.291 273.428 370.550 C 271.243 362.686,281.888 355.460,288.250 360.488 C 291.127 362.763,293.231 367.693,292.723 370.973 C 291.697 377.604,282.288 381.542,277.735 377.246 L 276.934 376.491 275.679 377.110 C 274.197 377.841,274.201 377.825,275.211 378.973 C 278.926 383.194,287.207 382.445,292.224 377.434 C 300.446 369.224,292.575 354.006,281.344 356.400 M144.363 368.114 C 141.036 368.672,139.042 370.988,137.547 376.028 C 135.675 382.343,133.801 388.831,133.801 389.002 C 133.801 389.155,135.791 389.769,136.290 389.769 C 136.466 389.769,136.610 389.663,136.610 389.532 C 136.610 388.875,140.928 374.689,141.383 373.850 C 144.538 368.040,155.844 370.924,155.863 377.545 C 155.868 379.111,155.567 380.279,152.447 390.816 C 151.901 392.660,151.454 394.204,151.454 394.246 C 151.454 394.360,154.066 395.048,154.156 394.958 C 154.197 394.917,154.738 393.139,155.356 391.008 C 155.974 388.877,156.989 385.402,157.610 383.286 C 159.480 376.920,159.188 374.049,156.423 371.631 C 153.513 369.085,148.057 367.494,144.363 368.114 M250.251 369.038 C 249.699 369.205,249.183 369.404,249.103 369.480 C 249.023 369.555,249.593 371.724,250.370 374.299 L 251.781 378.981 250.980 381.015 C 250.540 382.134,249.865 383.862,249.480 384.855 C 249.096 385.848,248.268 387.969,247.642 389.569 C 245.140 395.953,245.193 395.363,247.172 394.781 C 249.025 394.236,248.927 394.351,250.032 391.421 C 250.869 389.202,251.841 386.677,253.294 382.949 C 253.573 382.232,253.861 381.582,253.932 381.505 C 254.004 381.428,256.364 383.038,259.178 385.083 C 261.991 387.127,264.490 388.934,264.731 389.099 C 265.126 389.368,265.330 389.351,266.788 388.934 C 268.711 388.382,268.731 388.299,267.191 387.262 C 266.536 386.820,263.404 384.593,260.232 382.312 L 254.463 378.164 254.031 376.695 C 253.793 375.887,253.167 373.759,252.640 371.966 C 252.112 370.173,251.584 368.712,251.467 368.720 C 251.350 368.728,250.802 368.871,250.251 369.038 " stroke="none" fill="#2c3494" fill-rule="evenodd"></path><path id="path4" d="M101.552 78.586 C 101.578 87.826,101.623 92.678,101.652 89.368 C 101.790 73.636,101.791 61.785,101.655 61.785 C 101.572 61.785,101.526 69.346,101.552 78.586 M299.851 65.346 C 299.946 71.935,300.017 72.551,300.059 67.151 C 300.082 64.200,300.033 61.785,299.950 61.785 C 299.867 61.785,299.823 63.387,299.851 65.346 M195.744 88.814 C 196.327 88.855,197.230 88.854,197.750 88.813 C 198.270 88.772,197.793 88.739,196.690 88.739 C 195.587 88.740,195.161 88.773,195.744 88.814 M202.163 88.814 C 202.746 88.855,203.649 88.854,204.169 88.813 C 204.690 88.772,204.213 88.739,203.109 88.739 C 202.006 88.740,201.580 88.773,202.163 88.814 M191.825 89.005 C 192.019 89.055,192.335 89.055,192.528 89.005 C 192.721 88.954,192.563 88.913,192.177 88.913 C 191.790 88.913,191.632 88.954,191.825 89.005 M207.272 89.005 C 207.465 89.055,207.781 89.055,207.974 89.005 C 208.167 88.954,208.009 88.913,207.623 88.913 C 207.237 88.913,207.079 88.954,207.272 89.005 M189.418 89.205 C 189.611 89.256,189.927 89.256,190.120 89.205 C 190.313 89.155,190.155 89.114,189.769 89.114 C 189.383 89.114,189.225 89.155,189.418 89.205 M209.679 89.205 C 209.872 89.256,210.188 89.256,210.381 89.205 C 210.574 89.155,210.416 89.114,210.030 89.114 C 209.644 89.114,209.486 89.155,209.679 89.205 M300.195 112.538 C 300.195 120.095,300.220 123.187,300.251 119.408 C 300.281 115.629,300.281 109.446,300.251 105.667 C 300.220 101.888,300.195 104.980,300.195 112.538 M272.417 115.810 C 272.417 115.845,272.711 116.138,273.069 116.462 L 273.721 117.051 273.132 116.399 C 272.583 115.791,272.417 115.655,272.417 115.810 M124.574 118.255 C 124.086 118.751,123.733 119.157,123.788 119.157 C 123.843 119.157,124.287 118.751,124.774 118.255 C 125.262 117.758,125.615 117.352,125.560 117.352 C 125.505 117.352,125.061 117.758,124.574 118.255 M275.017 118.205 C 275.509 118.729,275.937 119.157,275.970 119.157 C 276.120 119.157,275.961 118.977,275.075 118.146 L 274.122 117.252 275.017 118.205 M101.346 123.905 C 101.317 125.476,101.229 126.175,101.053 126.246 C 100.857 126.326,100.858 126.351,101.059 126.363 C 101.464 126.388,101.524 125.994,101.454 123.758 L 101.389 121.665 101.346 123.905 M118.756 124.072 C 118.269 124.569,117.915 124.975,117.971 124.975 C 118.026 124.975,118.470 124.569,118.957 124.072 C 119.444 123.576,119.798 123.170,119.743 123.170 C 119.687 123.170,119.244 123.576,118.756 124.072 M280.834 124.022 C 281.665 124.908,281.846 125.067,281.846 124.916 C 281.846 124.884,281.417 124.455,280.893 123.964 L 279.940 123.069 280.834 124.022 M116.838 126.229 L 116.249 126.881 116.901 126.291 C 117.259 125.967,117.553 125.674,117.553 125.640 C 117.553 125.485,117.387 125.621,116.838 126.229 M282.247 125.640 C 282.247 125.674,282.540 125.967,282.899 126.291 L 283.551 126.881 282.961 126.229 C 282.412 125.621,282.247 125.485,282.247 125.640 M270.509 198.596 C 270.509 214.980,270.533 221.683,270.562 213.490 C 270.591 205.298,270.591 191.893,270.562 183.701 C 270.533 175.509,270.509 182.212,270.509 198.596 M285.610 181.946 C 285.581 189.007,285.624 194.784,285.707 194.784 C 285.790 194.784,285.858 189.007,285.858 181.946 C 285.858 174.885,285.814 169.107,285.760 169.107 C 285.707 169.107,285.639 174.885,285.610 181.946 M89.526 192.277 C 89.527 192.828,89.566 193.030,89.612 192.725 C 89.658 192.420,89.657 191.969,89.610 191.722 C 89.562 191.476,89.524 191.725,89.526 192.277 M310.181 192.076 C 310.183 192.518,310.224 192.674,310.272 192.425 C 310.320 192.175,310.318 191.814,310.268 191.623 C 310.218 191.431,310.179 191.635,310.181 192.076 M89.353 199.298 C 89.353 201.615,89.382 202.535,89.418 201.343 C 89.453 200.151,89.453 198.255,89.417 197.131 C 89.382 196.006,89.353 196.981,89.353 199.298 M310.416 199.298 C 310.416 201.615,310.445 202.535,310.481 201.343 C 310.516 200.151,310.516 198.255,310.480 197.131 C 310.445 196.006,310.416 196.981,310.416 199.298 M89.526 206.319 C 89.527 206.871,89.566 207.072,89.612 206.768 C 89.658 206.463,89.657 206.011,89.610 205.765 C 89.562 205.518,89.524 205.767,89.526 206.319 M310.181 206.319 C 310.183 206.760,310.224 206.917,310.272 206.668 C 310.320 206.418,310.318 206.057,310.268 205.865 C 310.218 205.673,310.179 205.878,310.181 206.319 M89.716 209.027 C 89.716 209.413,89.757 209.571,89.807 209.378 C 89.858 209.185,89.858 208.869,89.807 208.676 C 89.757 208.483,89.716 208.641,89.716 209.027 M309.976 209.027 C 309.976 209.413,310.018 209.571,310.068 209.378 C 310.119 209.185,310.119 208.869,310.068 208.676 C 310.018 208.483,309.976 208.641,309.976 209.027 M119.659 223.069 C 120.314 223.731,120.895 224.273,120.950 224.273 C 121.005 224.273,120.515 223.731,119.860 223.069 C 119.205 222.407,118.623 221.866,118.568 221.866 C 118.513 221.866,119.004 222.407,119.659 223.069 M154.357 223.119 L 153.159 224.373 154.413 223.176 C 155.103 222.517,155.667 221.953,155.667 221.922 C 155.667 221.774,155.469 221.955,154.357 223.119 M101.258 272.066 C 101.351 274.932,101.436 275.211,101.471 272.768 C 101.489 271.472,101.437 270.411,101.354 270.411 C 101.271 270.411,101.228 271.155,101.258 272.066 M300.193 270.662 C 300.140 270.800,300.120 277.006,300.149 284.453 L 300.201 297.994 300.301 284.203 C 300.356 276.617,300.376 270.411,300.345 270.411 C 300.314 270.411,300.245 270.524,300.193 270.662 M117.553 273.119 C 117.927 273.506,118.278 273.821,118.333 273.821 C 118.389 273.821,118.128 273.506,117.753 273.119 C 117.379 272.733,117.028 272.417,116.972 272.417 C 116.917 272.417,117.178 272.733,117.553 273.119 M282.035 273.170 L 281.344 273.922 282.096 273.230 C 282.510 272.850,282.849 272.512,282.849 272.478 C 282.849 272.325,282.679 272.469,282.035 273.170 M277.931 277.482 L 275.125 280.341 277.984 277.535 C 279.556 275.992,280.843 274.706,280.843 274.677 C 280.843 274.533,280.538 274.827,277.931 277.482 M121.665 277.432 C 123.096 278.867,124.312 280.040,124.367 280.040 C 124.422 280.040,123.297 278.867,121.866 277.432 C 120.434 275.998,119.218 274.824,119.163 274.824 C 119.108 274.824,120.234 275.998,121.665 277.432 M125.376 280.905 C 125.376 280.940,125.670 281.233,126.028 281.557 L 126.680 282.146 126.091 281.494 C 125.542 280.887,125.376 280.750,125.376 280.905 M273.709 281.494 L 273.119 282.146 273.771 281.557 C 274.379 281.008,274.515 280.843,274.360 280.843 C 274.326 280.843,274.033 281.136,273.709 281.494 M101.600 318.054 C 101.600 327.322,101.625 331.084,101.655 326.414 C 101.685 321.745,101.685 314.162,101.655 309.564 C 101.625 304.966,101.600 308.786,101.600 318.054 M193.230 309.672 C 193.533 309.718,194.030 309.718,194.333 309.672 C 194.636 309.626,194.388 309.589,193.781 309.589 C 193.175 309.589,192.926 309.626,193.230 309.672 M205.466 309.672 C 205.770 309.718,206.266 309.718,206.570 309.672 C 206.873 309.626,206.625 309.589,206.018 309.589 C 205.411 309.589,205.163 309.626,205.466 309.672 M198.437 309.878 C 199.176 309.916,200.440 309.916,201.245 309.878 C 202.050 309.840,201.444 309.809,199.900 309.808 C 198.355 309.808,197.697 309.839,198.437 309.878 M299.987 329.589 C 299.987 332.513,300.015 333.709,300.050 332.247 C 300.084 330.785,300.084 328.393,300.050 326.931 C 300.015 325.469,299.987 326.665,299.987 329.589 M200.421 366.650 C 200.735 367.161,200.915 367.213,201.124 366.851 C 201.203 366.713,201.193 366.668,201.102 366.751 C 201.010 366.834,200.757 366.743,200.540 366.550 C 200.154 366.208,200.151 366.211,200.421 366.650 " stroke="none" fill="#73bbe5" fill-rule="evenodd"></path></g></svg>